<svg xmlns="http://www.w3.org/2000/svg" width="43.75" height="45.4" viewBox="0 0 43.75 45.4"><title>icon-download</title><g><path fill="#e5ce9e" d="M25 19.4H8.4a.8.8 0 1 0 0 1.6H25a.78.78 0 0 0 0-1.56m0-6.3H8.4a.78.78 0 1 0 0 1.57H25a.78.78 0 0 0 0-1.55M31.7 42a.85.85 0 0 1-.86.85H15.36L14 43.3a2.83 2.83 0 0 1-.86.14 2.65 2.65 0 0 1-1.66-.58h-8a.85.85 0 0 1-.9-.8s0 0 0-.06V6.3a.85.85 0 0 1 .86-.84H6.6V6.8a.85.85 0 0 0 1.7 0V5.47h4.88V6.8a.85.85 0 0 0 1.7 0V5.47h4.25V6.8a.85.85 0 1 0 1.7 0V5.47h4.7V6.8a.85.85 0 1 0 1.7 0V5.47h3.6a.85.85 0 0 1 .86.85v5.9l2.54-2.55V6.3a3.4 3.4 0 0 0-3.4-3.4h-3.6V.86a.85.85 0 1 0-1.7 0V2.9h-4.7V.86a.85.85 0 1 0-1.7 0V2.9H14.9V.86a.85.85 0 0 0-1.7 0V2.9H8.3V.86a.85.85 0 0 0-1.7 0V2.9H3.4A3.4 3.4 0 0 0 0 6.3V42a3.4 3.4 0 0 0 3.4 3.4h27.44a3.4 3.4 0 0 0 3.4-3.4V29.66L31.7 32.2zm.78-25a.64.64 0 0 0-.9 0L18.46 30.18a.64.64 0 0 0 .9.9L32.5 18a.64.64 0 0 0 0-.9M20.8 37.6l-4.34-4.34-1.16 3.66 1.85 1.85zm11.96-23.35l7.06 7.06L23 38.16a1.34 1.34 0 0 1-.6.37h-.1l-8.78 2.8a.6.6 0 0 1-.8-.78l2.8-8.8v-.1a1.32 1.32 0 0 1 .38-.6l3.17-3.15H8.4a.78.78 0 0 1 0-1.57h12.25zm10.77 3.35L41 20.14l-7.06-7.06 2.53-2.54a1.92 1.92 0 0 1 2.68-.22l4.6 4.6"/></g></svg>