<svg xmlns="http://www.w3.org/2000/svg" width="40" height="40" viewBox="0 0 40 40"><title>twitter-icon</title><path fill="#111111" d="M37.8 0H2.2A2.2 2.2 0 0 0 0 2.2v35.6A2.2 2.2 0 0 0 2.2 40h35.6a2.2 2.2 0 0 0 2.2-2.2V2.2A2.2 2.2 0 0 0 37.8 0zm-7.9 14.9v.7A14.55 14.55 0 0 1 7.5 27.9a4.87 4.87 0 0 0 1.2.1 10.36 10.36 0 0 0 3.45-.58 1.38 1.38 0 0 0 .33-2.42 5.42 5.42 0 0 1-2.18-2.8 3.4 3.4 0 0 0 1 .1 5.9 5.9 0 0 0 1.4-.2 5.06 5.06 0 0 1-4.1-5V17a6 6 0 0 0 2.3.6 5.1 5.1 0 0 1-2.3-4.3 1.33 1.33 0 0 1 2.23-1 14.43 14.43 0 0 0 9.07 3.8 4.87 4.87 0 0 1-.1-1.2 5.1 5.1 0 0 1 8.37-3.9 1.3 1.3 0 0 0 1.13.27 9.2 9.2 0 0 0 2.6-1.06 4.92 4.92 0 0 1-2.3 2.8 9.6 9.6 0 0 0 2.9-.8 9.58 9.58 0 0 1-2.6 2.7z"/></svg>