<svg xmlns="http://www.w3.org/2000/svg" width="40" height="40" viewBox="0 0 40 40"><title>instagram-icon</title><path fill="#111111" d="M20 14.67h-.1a5.16 5.16 0 0 0-3.5 1.4 5.5 5.5 0 0 0-1.6 3.83 5.35 5.35 0 0 0 5.3 5.33 5.48 5.48 0 0 0 5.3-5.33 5.12 5.12 0 0 0-1.3-3.72 6.55 6.55 0 0 0-4.1-1.5zM37.8 0H2.2A2.2 2.2 0 0 0 0 2.2v35.6A2.2 2.2 0 0 0 2.2 40h35.6a2.2 2.2 0 0 0 2.2-2.2V2.2A2.2 2.2 0 0 0 37.8 0zm-3.3 32.76A2.2 2.2 0 0 1 32.3 35H7.7a2.2 2.2 0 0 1-2.2-2.2V7.23A2.2 2.2 0 0 1 7.7 5h24.6a2.2 2.2 0 0 1 2.2 2.2zM30.1 7.24H9.9a2.2 2.2 0 0 0-2.2 2.2v21.1a2.2 2.2 0 0 0 2.2 2.22h20.2a2.2 2.2 0 0 0 2.2-2.2V9.45a2.2 2.2 0 0 0-2.2-2.22zM27.9 20a8.07 8.07 0 0 1-7.9 7.94A8 8 0 0 1 12.1 20a8.26 8.26 0 0 1 2.4-5.73 7.68 7.68 0 0 1 5.5-2.2 8.18 8.18 0 0 1 5.9 2.4 7.15 7.15 0 0 1 2 5.53zm.2-6.43a1.8 1.8 0 1 1 1.8-1.8 1.8 1.8 0 0 1-1.8 1.8z"/></svg>