<svg xmlns="http://www.w3.org/2000/svg" width="40" height="40" viewBox="0 0 40 40"><title>pinterest-icon</title><path fill="#111111" d="M19.9 0a20 20 0 0 0-8 38.3 18.2 18.2 0 0 1 .3-4.6c.4-1.6 2.6-10.9 2.6-10.9a8.35 8.35 0 0 1-.6-3.2c0-3 1.68-5.2 3.87-5.2a2.7 2.7 0 0 1 2.7 3c0 1.8-1.2 4.6-1.8 7.1a3.16 3.16 0 0 0 3.18 3.9c3.78 0 6.27-4.9 6.27-10.6 0-4.4-3-7.7-8.26-7.7a9.38 9.38 0 0 0-9.75 9.6 5.73 5.73 0 0 0 1.3 3.9 1 1 0 0 1 .3 1.1c-.1.4-.3 1.3-.4 1.6a.66.66 0 0 1-1 .5c-2.8-1.1-4.08-4.2-4.08-7.6 0-5.7 4.78-12.5 14.23-12.5 7.56 0 12.64 5.5 12.64 11.5 0 7.8-4.4 13.7-10.76 13.7a5.74 5.74 0 0 1-4.88-2.5s-1.2 4.6-1.4 5.5a18.92 18.92 0 0 1-2 4.3 21 21 0 0 0 5.68.8A20 20 0 0 0 40 20 20.3 20.3 0 0 0 19.9 0z"/></svg>