<svg xmlns="http://www.w3.org/2000/svg" width="40" height="40" viewBox="0 0 40 40"><title>youtube-icon</title><path fill="none" d="M37.8 40a2.22 2.22 0 0 0 2.2-2.2V2.2A2.22 2.22 0 0 0 37.8 0H2.2A2.22 2.22 0 0 0 0 2.2v35.6A2.22 2.22 0 0 0 2.2 40z"/><path fill="#111111" d="M39.6 12s-.4-2.8-1.6-4a5.66 5.66 0 0 0-4-1.7c-5.6-.4-14-.4-14-.4s-8.4 0-14 .4A5.66 5.66 0 0 0 2 8C.8 9.2.4 12 .4 12a59.76 59.76 0 0 0-.4 6.5v3A62.24 62.24 0 0 0 .4 28s.4 2.8 1.6 4c1.5 1.6 3.5 1.5 4.4 1.7 3.2.3 13.6.4 13.6.4s8.4 0 14-.4a5.66 5.66 0 0 0 4-1.7c1.2-1.2 1.6-4 1.6-4a59.76 59.76 0 0 0 .4-6.5v-3a59.76 59.76 0 0 0-.4-6.5zM15.9 25.2V14l10.8 5.6z"/></svg>