<svg xmlns="http://www.w3.org/2000/svg" width="30" height="30" viewBox="0 0 30 30"><title>icon-download</title><path fill="#e5ce9e" d="M17.14 12.82H5.76a.53.53 0 1 0 0 1.06h11.38a.52.52 0 1 0 0-1m0-4.16H5.76a.52.52 0 1 0 0 1h11.38a.52.52 0 0 0 .47-.57.53.53 0 0 0-.46-.45m4.6 19.06a.57.57 0 0 1-.6.56h-10.6l-.94.3a2 2 0 0 1-.6.08 1.86 1.86 0 0 1-1.14-.38H2.4a.58.58 0 0 1-.63-.53V4.15a.57.57 0 0 1 .6-.56h2.16v.9a.58.58 0 0 0 1.17 0v-.9H9v.9a.58.58 0 0 0 1.17 0v-.9h2.9v.9a.58.58 0 0 0 1.18 0v-.9h3.22v.9a.58.58 0 0 0 1.17 0v-.9h2.47a.57.57 0 0 1 .6.57v3.9l1.74-1.7v-2.2A2.3 2.3 0 0 0 21.1 1.9h-2.43V.57a.58.58 0 0 0-1.17 0V1.9h-3.22V.57a.58.58 0 0 0-1.17 0V1.9h-2.9V.57a.58.58 0 0 0-1.16 0V1.9H5.7V.57a.58.58 0 0 0-1.18 0V1.9h-2.2A2.3 2.3 0 0 0 0 4.17v23.6A2.3 2.3 0 0 0 2.33 30h18.82a2.3 2.3 0 0 0 2.33-2.25V19.6l-1.74 1.68zm.52-16.52a.45.45 0 0 0-.62 0l-9 8.7a.4.4 0 0 0 .07.6.45.45 0 0 0 .56 0l9-8.65a.4.4 0 0 0 0-.6m-8 13.55l-3-2.87-.8 2.42 1.27 1.22zm8.2-15.43l4.84 4.67-11.53 11.1a.92.92 0 0 1-.4.25h-.08l-6 1.85a.42.42 0 0 1-.55-.2.38.38 0 0 1 0-.32l1.9-5.78v-.07a.87.87 0 0 1 .25-.4l2.17-2.08h-7.3a.52.52 0 1 1 0-1h8.4zm7.4 2.2L28.1 13.3l-4.83-4.66L25 7a1.35 1.35 0 0 1 1.84-.15l3.15 3"/></svg>